<svg xmlns="http://www.w3.org/2000/svg" width="48" height="48" viewBox="0 0 48 48" fill="none">
  <path d="M24 4C12.9543 4 4 12.9543 4 24C4 35.0457 12.9543 44 24 44C35.0457 44 44 35.0457 44 24C44 12.9543 35.0457 4 24 4Z" fill="#4285F4"/>
  <path d="M32 20C32 16.6863 29.3137 14 26 14H22C18.6863 14 16 16.6863 16 20V28C16 31.3137 18.6863 34 22 34H26C29.3137 34 32 31.3137 32 28V20Z" fill="white"/>
  <path d="M26 24C26 21.7909 24.2091 20 22 20C19.7909 20 18 21.7909 18 24C18 26.2091 19.7909 28 22 28C24.2091 28 26 26.2091 26 24Z" fill="#4285F4"/>
</svg>